<svg xmlns="http://www.w3.org/2000/svg" xmlns:xlink="http://www.w3.org/1999/xlink" width="2000" zoomAndPan="magnify" viewBox="0 0 1500 1499.999933" height="2000" preserveAspectRatio="xMidYMid meet" version="1.0"><defs><clipPath id="3afca7d741"><path d="M 179 170.03125 L 1321 170.03125 L 1321 1312.910156 L 179 1312.910156 Z M 179 170.03125 " clip-rule="nonzero"/></clipPath><clipPath id="f688b76d54"><path d="M 776.347656 184.203125 L 839.085938 273.265625 C 854.34375 294.925781 882.90625 302.578125 906.953125 291.449219 L 1005.816406 245.6875 C 1015.328125 241.285156 1026.390625 241.785156 1035.46875 247.027344 C 1044.546875 252.265625 1050.507812 261.597656 1051.449219 272.035156 L 1061.253906 380.535156 C 1063.636719 406.921875 1084.546875 427.832031 1110.9375 430.214844 L 1219.433594 440.019531 C 1229.875 440.960938 1239.203125 446.925781 1244.445312 456.003906 C 1249.683594 465.082031 1250.183594 476.140625 1245.78125 485.652344 L 1200.019531 584.515625 C 1188.890625 608.5625 1196.542969 637.125 1218.207031 652.382812 L 1307.265625 715.121094 C 1315.835938 721.160156 1320.933594 730.988281 1320.933594 741.46875 C 1320.933594 751.953125 1315.835938 761.78125 1307.265625 767.816406 L 1218.207031 830.558594 C 1196.542969 845.816406 1188.890625 874.378906 1200.019531 898.421875 L 1245.78125 997.285156 C 1250.183594 1006.796875 1249.683594 1017.859375 1244.445312 1026.9375 C 1239.203125 1036.015625 1229.875 1041.976562 1219.433594 1042.921875 L 1110.9375 1052.722656 C 1084.546875 1055.109375 1063.636719 1076.019531 1061.253906 1102.40625 L 1051.449219 1210.902344 C 1050.507812 1221.34375 1044.546875 1230.671875 1035.46875 1235.914062 C 1026.390625 1241.15625 1015.328125 1241.652344 1005.816406 1237.25 L 906.953125 1191.492188 C 882.90625 1180.363281 854.34375 1188.015625 839.085938 1209.675781 L 776.347656 1298.738281 C 770.308594 1307.304688 760.484375 1312.40625 750 1312.40625 C 739.515625 1312.40625 729.691406 1307.304688 723.652344 1298.738281 L 660.914062 1209.675781 C 645.65625 1188.015625 617.089844 1180.363281 593.046875 1191.492188 L 494.183594 1237.25 C 484.671875 1241.652344 473.609375 1241.15625 464.53125 1235.914062 C 455.453125 1230.671875 449.492188 1221.34375 448.550781 1210.902344 L 438.746094 1102.40625 C 436.363281 1076.019531 415.453125 1055.109375 389.066406 1052.722656 L 280.566406 1042.921875 C 270.125 1041.976562 260.796875 1036.015625 255.554688 1026.9375 C 250.316406 1017.859375 249.816406 1006.796875 254.21875 997.285156 L 299.980469 898.421875 C 311.109375 874.378906 303.453125 845.816406 281.792969 830.558594 L 192.734375 767.816406 C 184.164062 761.78125 179.066406 751.953125 179.066406 741.46875 C 179.066406 730.988281 184.164062 721.160156 192.734375 715.121094 L 281.792969 652.382812 C 303.453125 637.125 311.109375 608.5625 299.980469 584.515625 L 254.21875 485.652344 C 249.816406 476.140625 250.316406 465.082031 255.554688 456.003906 C 260.796875 446.925781 270.125 440.960938 280.566406 440.019531 L 389.066406 430.214844 C 415.453125 427.832031 436.363281 406.921875 438.746094 380.535156 L 448.550781 272.035156 C 449.492188 261.597656 455.453125 252.265625 464.53125 247.027344 C 473.609375 241.785156 484.671875 241.285156 494.183594 245.6875 L 593.046875 291.449219 C 617.089844 302.578125 645.65625 294.925781 660.914062 273.265625 L 723.652344 184.203125 C 729.6875 175.632812 739.515625 170.535156 750 170.535156 C 760.484375 170.535156 770.308594 175.632812 776.347656 184.203125 Z M 776.347656 184.203125 " clip-rule="nonzero"/></clipPath><clipPath id="22f97f2c63"><path d="M 0.0664062 0.539062 L 1141.9375 0.539062 L 1141.9375 1142.40625 L 0.0664062 1142.40625 Z M 0.0664062 0.539062 " clip-rule="nonzero"/></clipPath><clipPath id="0f098b3e77"><path d="M 597.347656 14.203125 L 660.085938 103.265625 C 675.34375 124.925781 703.90625 132.578125 727.953125 121.449219 L 826.816406 75.6875 C 836.328125 71.285156 847.390625 71.785156 856.46875 77.027344 C 865.546875 82.265625 871.507812 91.597656 872.449219 102.035156 L 882.253906 210.535156 C 884.636719 236.921875 905.546875 257.832031 931.9375 260.214844 L 1040.433594 270.019531 C 1050.875 270.960938 1060.203125 276.925781 1065.445312 286.003906 C 1070.683594 295.082031 1071.183594 306.140625 1066.78125 315.652344 L 1021.019531 414.515625 C 1009.890625 438.5625 1017.542969 467.125 1039.207031 482.382812 L 1128.265625 545.121094 C 1136.835938 551.160156 1141.933594 560.988281 1141.933594 571.46875 C 1141.933594 581.953125 1136.835938 591.78125 1128.265625 597.816406 L 1039.207031 660.558594 C 1017.542969 675.816406 1009.890625 704.378906 1021.019531 728.421875 L 1066.78125 827.285156 C 1071.183594 836.796875 1070.683594 847.859375 1065.445312 856.9375 C 1060.203125 866.015625 1050.875 871.976562 1040.433594 872.921875 L 931.9375 882.722656 C 905.546875 885.109375 884.636719 906.019531 882.253906 932.40625 L 872.449219 1040.902344 C 871.507812 1051.34375 865.546875 1060.671875 856.46875 1065.914062 C 847.390625 1071.15625 836.328125 1071.652344 826.816406 1067.25 L 727.953125 1021.492188 C 703.90625 1010.363281 675.34375 1018.015625 660.085938 1039.675781 L 597.347656 1128.738281 C 591.308594 1137.304688 581.484375 1142.40625 571 1142.40625 C 560.515625 1142.40625 550.691406 1137.304688 544.652344 1128.738281 L 481.914062 1039.675781 C 466.65625 1018.015625 438.089844 1010.363281 414.046875 1021.492188 L 315.183594 1067.25 C 305.671875 1071.652344 294.609375 1071.15625 285.53125 1065.914062 C 276.453125 1060.671875 270.492188 1051.34375 269.550781 1040.902344 L 259.746094 932.40625 C 257.363281 906.019531 236.453125 885.109375 210.066406 882.722656 L 101.566406 872.921875 C 91.125 871.976562 81.796875 866.015625 76.554688 856.9375 C 71.316406 847.859375 70.816406 836.796875 75.21875 827.285156 L 120.980469 728.421875 C 132.109375 704.378906 124.453125 675.816406 102.792969 660.558594 L 13.734375 597.816406 C 5.164062 591.78125 0.0664062 581.953125 0.0664062 571.46875 C 0.0664062 560.988281 5.164062 551.160156 13.734375 545.121094 L 102.792969 482.382812 C 124.453125 467.125 132.109375 438.5625 120.980469 414.515625 L 75.21875 315.652344 C 70.816406 306.140625 71.316406 295.082031 76.554688 286.003906 C 81.796875 276.925781 91.125 270.960938 101.566406 270.019531 L 210.066406 260.214844 C 236.453125 257.832031 257.363281 236.921875 259.746094 210.535156 L 269.550781 102.035156 C 270.492188 91.597656 276.453125 82.265625 285.53125 77.027344 C 294.609375 71.785156 305.671875 71.285156 315.183594 75.6875 L 414.046875 121.449219 C 438.089844 132.578125 466.65625 124.925781 481.914062 103.265625 L 544.652344 14.203125 C 550.6875 5.632812 560.515625 0.535156 571 0.535156 C 581.484375 0.535156 591.308594 5.632812 597.347656 14.203125 Z M 597.347656 14.203125 " clip-rule="nonzero"/></clipPath><radialGradient gradientTransform="matrix(1, 0, 0, 1, -23.668227, -23.198314)" gradientUnits="userSpaceOnUse" r="807.424708" cx="594.668216" id="b07841d4ab" cy="594.668216" fx="594.668216" fy="594.668216"><stop stop-opacity="1" stop-color="rgb(61.329651%, 30.37262%, 99.960327%)" offset="0"/><stop stop-opacity="1" stop-color="rgb(61.558533%, 30.635071%, 99.902344%)" offset="0.0078125"/><stop stop-opacity="1" stop-color="rgb(61.709595%, 30.810547%, 99.864197%)" offset="0.0117188"/><stop stop-opacity="1" stop-color="rgb(61.860657%, 30.984497%, 99.82605%)" offset="0.015625"/><stop stop-opacity="1" stop-color="rgb(62.013245%, 31.159973%, 99.787903%)" offset="0.0195312"/><stop stop-opacity="1" stop-color="rgb(62.164307%, 31.333923%, 99.749756%)" offset="0.0234375"/><stop stop-opacity="1" stop-color="rgb(62.315369%, 31.507874%, 99.711609%)" offset="0.0273438"/><stop stop-opacity="1" stop-color="rgb(62.467957%, 31.68335%, 99.673462%)" offset="0.03125"/><stop stop-opacity="1" stop-color="rgb(62.619019%, 31.8573%, 99.635315%)" offset="0.0351562"/><stop stop-opacity="1" stop-color="rgb(62.771606%, 32.032776%, 99.597168%)" offset="0.0390625"/><stop stop-opacity="1" stop-color="rgb(62.922668%, 32.206726%, 99.559021%)" offset="0.0429688"/><stop stop-opacity="1" stop-color="rgb(63.07373%, 32.382202%, 99.519348%)" offset="0.046875"/><stop stop-opacity="1" stop-color="rgb(63.226318%, 32.556152%, 99.481201%)" offset="0.0507812"/><stop stop-opacity="1" stop-color="rgb(63.37738%, 32.730103%, 99.443054%)" offset="0.0546875"/><stop stop-opacity="1" stop-color="rgb(63.528442%, 32.905579%, 99.404907%)" offset="0.0585938"/><stop stop-opacity="1" stop-color="rgb(63.68103%, 33.079529%, 99.36676%)" offset="0.0625"/><stop stop-opacity="1" stop-color="rgb(63.832092%, 33.255005%, 99.328613%)" offset="0.0664062"/><stop stop-opacity="1" stop-color="rgb(63.98468%, 33.428955%, 99.290466%)" offset="0.0703125"/><stop stop-opacity="1" stop-color="rgb(64.135742%, 33.604431%, 99.252319%)" offset="0.0742188"/><stop stop-opacity="1" stop-color="rgb(64.286804%, 33.778381%, 99.214172%)" offset="0.078125"/><stop stop-opacity="1" stop-color="rgb(64.439392%, 33.952332%, 99.176025%)" offset="0.0820312"/><stop stop-opacity="1" stop-color="rgb(64.590454%, 34.127808%, 99.137878%)" offset="0.0859375"/><stop stop-opacity="1" stop-color="rgb(64.743042%, 34.301758%, 99.098206%)" offset="0.0898438"/><stop stop-opacity="1" stop-color="rgb(64.894104%, 34.477234%, 99.060059%)" offset="0.09375"/><stop stop-opacity="1" stop-color="rgb(65.045166%, 34.651184%, 99.021912%)" offset="0.0976562"/><stop stop-opacity="1" stop-color="rgb(65.197754%, 34.82666%, 98.983765%)" offset="0.101562"/><stop stop-opacity="1" stop-color="rgb(65.348816%, 35.00061%, 98.945618%)" offset="0.105469"/><stop stop-opacity="1" stop-color="rgb(65.499878%, 35.174561%, 98.907471%)" offset="0.109375"/><stop stop-opacity="1" stop-color="rgb(65.652466%, 35.350037%, 98.869324%)" offset="0.113281"/><stop stop-opacity="1" stop-color="rgb(65.803528%, 35.523987%, 98.831177%)" offset="0.117188"/><stop stop-opacity="1" stop-color="rgb(65.956116%, 35.699463%, 98.79303%)" offset="0.121094"/><stop stop-opacity="1" stop-color="rgb(66.107178%, 35.873413%, 98.754883%)" offset="0.125"/><stop stop-opacity="1" stop-color="rgb(66.25824%, 36.048889%, 98.716736%)" offset="0.128906"/><stop stop-opacity="1" stop-color="rgb(66.410828%, 36.222839%, 98.678589%)" offset="0.132812"/><stop stop-opacity="1" stop-color="rgb(66.56189%, 36.39679%, 98.638916%)" offset="0.136719"/><stop stop-opacity="1" stop-color="rgb(66.712952%, 36.572266%, 98.600769%)" offset="0.140625"/><stop stop-opacity="1" stop-color="rgb(66.86554%, 36.746216%, 98.562622%)" offset="0.144531"/><stop stop-opacity="1" stop-color="rgb(67.016602%, 36.921692%, 98.524475%)" offset="0.148438"/><stop stop-opacity="1" stop-color="rgb(67.169189%, 37.095642%, 98.486328%)" offset="0.152344"/><stop stop-opacity="1" stop-color="rgb(67.320251%, 37.271118%, 98.448181%)" offset="0.15625"/><stop stop-opacity="1" stop-color="rgb(67.471313%, 37.445068%, 98.410034%)" offset="0.160156"/><stop stop-opacity="1" stop-color="rgb(67.623901%, 37.620544%, 98.371887%)" offset="0.164062"/><stop stop-opacity="1" stop-color="rgb(67.774963%, 37.794495%, 98.33374%)" offset="0.167969"/><stop stop-opacity="1" stop-color="rgb(67.926025%, 37.968445%, 98.295593%)" offset="0.171875"/><stop stop-opacity="1" stop-color="rgb(68.078613%, 38.143921%, 98.257446%)" offset="0.175781"/><stop stop-opacity="1" stop-color="rgb(68.229675%, 38.317871%, 98.217773%)" offset="0.179688"/><stop stop-opacity="1" stop-color="rgb(68.382263%, 38.493347%, 98.179626%)" offset="0.183594"/><stop stop-opacity="1" stop-color="rgb(68.533325%, 38.667297%, 98.141479%)" offset="0.1875"/><stop stop-opacity="1" stop-color="rgb(68.684387%, 38.842773%, 98.103333%)" offset="0.191406"/><stop stop-opacity="1" stop-color="rgb(68.836975%, 39.016724%, 98.065186%)" offset="0.195312"/><stop stop-opacity="1" stop-color="rgb(68.988037%, 39.190674%, 98.027039%)" offset="0.199219"/><stop stop-opacity="1" stop-color="rgb(69.140625%, 39.36615%, 97.988892%)" offset="0.203125"/><stop stop-opacity="1" stop-color="rgb(69.291687%, 39.5401%, 97.950745%)" offset="0.207031"/><stop stop-opacity="1" stop-color="rgb(69.442749%, 39.715576%, 97.912598%)" offset="0.210938"/><stop stop-opacity="1" stop-color="rgb(69.595337%, 39.889526%, 97.874451%)" offset="0.214844"/><stop stop-opacity="1" stop-color="rgb(69.746399%, 40.065002%, 97.836304%)" offset="0.21875"/><stop stop-opacity="1" stop-color="rgb(69.897461%, 40.238953%, 97.796631%)" offset="0.222656"/><stop stop-opacity="1" stop-color="rgb(70.050049%, 40.412903%, 97.758484%)" offset="0.226562"/><stop stop-opacity="1" stop-color="rgb(70.201111%, 40.588379%, 97.720337%)" offset="0.230469"/><stop stop-opacity="1" stop-color="rgb(70.353699%, 40.762329%, 97.68219%)" offset="0.234375"/><stop stop-opacity="1" stop-color="rgb(70.504761%, 40.937805%, 97.644043%)" offset="0.238281"/><stop stop-opacity="1" stop-color="rgb(70.655823%, 41.111755%, 97.605896%)" offset="0.242188"/><stop stop-opacity="1" stop-color="rgb(70.808411%, 41.287231%, 97.567749%)" offset="0.246094"/><stop stop-opacity="1" stop-color="rgb(70.959473%, 41.461182%, 97.529602%)" offset="0.25"/><stop stop-opacity="1" stop-color="rgb(71.186829%, 41.722107%, 97.473145%)" offset="0.253906"/><stop stop-opacity="1" stop-color="rgb(71.490479%, 42.071533%, 97.395325%)" offset="0.261719"/><stop stop-opacity="1" stop-color="rgb(71.794128%, 42.420959%, 97.319031%)" offset="0.269531"/><stop stop-opacity="1" stop-color="rgb(72.096252%, 42.770386%, 97.242737%)" offset="0.277344"/><stop stop-opacity="1" stop-color="rgb(72.399902%, 43.119812%, 97.166443%)" offset="0.285156"/><stop stop-opacity="1" stop-color="rgb(72.703552%, 43.469238%, 97.090149%)" offset="0.292969"/><stop stop-opacity="1" stop-color="rgb(73.007202%, 43.818665%, 97.013855%)" offset="0.300781"/><stop stop-opacity="1" stop-color="rgb(73.309326%, 44.168091%, 96.936035%)" offset="0.308594"/><stop stop-opacity="1" stop-color="rgb(73.612976%, 44.515991%, 96.859741%)" offset="0.316406"/><stop stop-opacity="1" stop-color="rgb(73.916626%, 44.865417%, 96.783447%)" offset="0.324219"/><stop stop-opacity="1" stop-color="rgb(74.220276%, 45.214844%, 96.707153%)" offset="0.332031"/><stop stop-opacity="1" stop-color="rgb(74.5224%, 45.56427%, 96.630859%)" offset="0.339844"/><stop stop-opacity="1" stop-color="rgb(74.82605%, 45.913696%, 96.55304%)" offset="0.347656"/><stop stop-opacity="1" stop-color="rgb(75.1297%, 46.263123%, 96.476746%)" offset="0.355469"/><stop stop-opacity="1" stop-color="rgb(75.43335%, 46.612549%, 96.400452%)" offset="0.363281"/><stop stop-opacity="1" stop-color="rgb(75.735474%, 46.960449%, 96.324158%)" offset="0.371094"/><stop stop-opacity="1" stop-color="rgb(76.039124%, 47.309875%, 96.247864%)" offset="0.378906"/><stop stop-opacity="1" stop-color="rgb(76.342773%, 47.659302%, 96.17157%)" offset="0.386719"/><stop stop-opacity="1" stop-color="rgb(76.646423%, 48.008728%, 96.09375%)" offset="0.394531"/><stop stop-opacity="1" stop-color="rgb(76.948547%, 48.358154%, 96.017456%)" offset="0.402344"/><stop stop-opacity="1" stop-color="rgb(77.252197%, 48.707581%, 95.941162%)" offset="0.410156"/><stop stop-opacity="1" stop-color="rgb(77.555847%, 49.057007%, 95.864868%)" offset="0.417969"/><stop stop-opacity="1" stop-color="rgb(77.859497%, 49.404907%, 95.788574%)" offset="0.425781"/><stop stop-opacity="1" stop-color="rgb(78.163147%, 49.754333%, 95.71228%)" offset="0.433594"/><stop stop-opacity="1" stop-color="rgb(78.465271%, 50.10376%, 95.63446%)" offset="0.441406"/><stop stop-opacity="1" stop-color="rgb(78.768921%, 50.453186%, 95.558167%)" offset="0.449219"/><stop stop-opacity="1" stop-color="rgb(79.072571%, 50.802612%, 95.481873%)" offset="0.457031"/><stop stop-opacity="1" stop-color="rgb(79.376221%, 51.152039%, 95.405579%)" offset="0.464844"/><stop stop-opacity="1" stop-color="rgb(79.678345%, 51.501465%, 95.329285%)" offset="0.472656"/><stop stop-opacity="1" stop-color="rgb(79.981995%, 51.850891%, 95.252991%)" offset="0.480469"/><stop stop-opacity="1" stop-color="rgb(80.285645%, 52.198792%, 95.175171%)" offset="0.488281"/><stop stop-opacity="1" stop-color="rgb(80.589294%, 52.548218%, 95.098877%)" offset="0.496094"/><stop stop-opacity="1" stop-color="rgb(80.81665%, 52.810669%, 95.040894%)" offset="0.503906"/><stop stop-opacity="1" stop-color="rgb(80.967712%, 52.986145%, 95.002747%)" offset="0.507812"/><stop stop-opacity="1" stop-color="rgb(81.118774%, 53.160095%, 94.9646%)" offset="0.511719"/><stop stop-opacity="1" stop-color="rgb(81.271362%, 53.334045%, 94.926453%)" offset="0.515625"/><stop stop-opacity="1" stop-color="rgb(81.422424%, 53.509521%, 94.888306%)" offset="0.519531"/><stop stop-opacity="1" stop-color="rgb(81.575012%, 53.683472%, 94.850159%)" offset="0.523438"/><stop stop-opacity="1" stop-color="rgb(81.726074%, 53.858948%, 94.812012%)" offset="0.527344"/><stop stop-opacity="1" stop-color="rgb(81.877136%, 54.032898%, 94.773865%)" offset="0.53125"/><stop stop-opacity="1" stop-color="rgb(82.029724%, 54.208374%, 94.734192%)" offset="0.535156"/><stop stop-opacity="1" stop-color="rgb(82.180786%, 54.382324%, 94.696045%)" offset="0.539062"/><stop stop-opacity="1" stop-color="rgb(82.333374%, 54.556274%, 94.657898%)" offset="0.542969"/><stop stop-opacity="1" stop-color="rgb(82.484436%, 54.73175%, 94.619751%)" offset="0.546875"/><stop stop-opacity="1" stop-color="rgb(82.635498%, 54.905701%, 94.581604%)" offset="0.550781"/><stop stop-opacity="1" stop-color="rgb(82.788086%, 55.081177%, 94.543457%)" offset="0.554688"/><stop stop-opacity="1" stop-color="rgb(82.939148%, 55.255127%, 94.50531%)" offset="0.558594"/><stop stop-opacity="1" stop-color="rgb(83.09021%, 55.430603%, 94.467163%)" offset="0.5625"/><stop stop-opacity="1" stop-color="rgb(83.242798%, 55.604553%, 94.429016%)" offset="0.566406"/><stop stop-opacity="1" stop-color="rgb(83.39386%, 55.778503%, 94.390869%)" offset="0.570312"/><stop stop-opacity="1" stop-color="rgb(83.546448%, 55.953979%, 94.352722%)" offset="0.574219"/><stop stop-opacity="1" stop-color="rgb(83.69751%, 56.12793%, 94.313049%)" offset="0.578125"/><stop stop-opacity="1" stop-color="rgb(83.848572%, 56.303406%, 94.274902%)" offset="0.582031"/><stop stop-opacity="1" stop-color="rgb(84.00116%, 56.477356%, 94.236755%)" offset="0.585938"/><stop stop-opacity="1" stop-color="rgb(84.152222%, 56.652832%, 94.198608%)" offset="0.589844"/><stop stop-opacity="1" stop-color="rgb(84.303284%, 56.826782%, 94.160461%)" offset="0.59375"/><stop stop-opacity="1" stop-color="rgb(84.455872%, 57.000732%, 94.122314%)" offset="0.597656"/><stop stop-opacity="1" stop-color="rgb(84.606934%, 57.176208%, 94.084167%)" offset="0.601562"/><stop stop-opacity="1" stop-color="rgb(84.759521%, 57.350159%, 94.046021%)" offset="0.605469"/><stop stop-opacity="1" stop-color="rgb(84.910583%, 57.525635%, 94.007874%)" offset="0.609375"/><stop stop-opacity="1" stop-color="rgb(85.061646%, 57.699585%, 93.969727%)" offset="0.613281"/><stop stop-opacity="1" stop-color="rgb(85.214233%, 57.875061%, 93.93158%)" offset="0.617188"/><stop stop-opacity="1" stop-color="rgb(85.365295%, 58.049011%, 93.893433%)" offset="0.621094"/><stop stop-opacity="1" stop-color="rgb(85.516357%, 58.222961%, 93.85376%)" offset="0.625"/><stop stop-opacity="1" stop-color="rgb(85.743713%, 58.485413%, 93.797302%)" offset="0.628906"/><stop stop-opacity="1" stop-color="rgb(86.047363%, 58.834839%, 93.721008%)" offset="0.636719"/><stop stop-opacity="1" stop-color="rgb(86.351013%, 59.184265%, 93.644714%)" offset="0.644531"/><stop stop-opacity="1" stop-color="rgb(86.654663%, 59.533691%, 93.56842%)" offset="0.652344"/><stop stop-opacity="1" stop-color="rgb(86.958313%, 59.881592%, 93.490601%)" offset="0.660156"/><stop stop-opacity="1" stop-color="rgb(87.260437%, 60.231018%, 93.414307%)" offset="0.667969"/><stop stop-opacity="1" stop-color="rgb(87.564087%, 60.580444%, 93.338013%)" offset="0.675781"/><stop stop-opacity="1" stop-color="rgb(87.867737%, 60.929871%, 93.261719%)" offset="0.683594"/><stop stop-opacity="1" stop-color="rgb(88.171387%, 61.279297%, 93.185425%)" offset="0.691406"/><stop stop-opacity="1" stop-color="rgb(88.473511%, 61.628723%, 93.109131%)" offset="0.699219"/><stop stop-opacity="1" stop-color="rgb(88.777161%, 61.978149%, 93.031311%)" offset="0.707031"/><stop stop-opacity="1" stop-color="rgb(89.080811%, 62.32605%, 92.955017%)" offset="0.714844"/><stop stop-opacity="1" stop-color="rgb(89.38446%, 62.675476%, 92.878723%)" offset="0.722656"/><stop stop-opacity="1" stop-color="rgb(89.686584%, 63.024902%, 92.802429%)" offset="0.730469"/><stop stop-opacity="1" stop-color="rgb(89.990234%, 63.374329%, 92.726135%)" offset="0.738281"/><stop stop-opacity="1" stop-color="rgb(90.293884%, 63.723755%, 92.649841%)" offset="0.746094"/><stop stop-opacity="1" stop-color="rgb(90.52124%, 63.986206%, 92.591858%)" offset="0.753906"/><stop stop-opacity="1" stop-color="rgb(90.672302%, 64.160156%, 92.552185%)" offset="0.757812"/><stop stop-opacity="1" stop-color="rgb(90.82489%, 64.335632%, 92.514038%)" offset="0.761719"/><stop stop-opacity="1" stop-color="rgb(90.975952%, 64.509583%, 92.475891%)" offset="0.765625"/><stop stop-opacity="1" stop-color="rgb(91.12854%, 64.683533%, 92.437744%)" offset="0.769531"/><stop stop-opacity="1" stop-color="rgb(91.279602%, 64.859009%, 92.399597%)" offset="0.773438"/><stop stop-opacity="1" stop-color="rgb(91.430664%, 65.032959%, 92.36145%)" offset="0.777344"/><stop stop-opacity="1" stop-color="rgb(91.583252%, 65.208435%, 92.323303%)" offset="0.78125"/><stop stop-opacity="1" stop-color="rgb(91.734314%, 65.382385%, 92.285156%)" offset="0.785156"/><stop stop-opacity="1" stop-color="rgb(91.885376%, 65.557861%, 92.247009%)" offset="0.789062"/><stop stop-opacity="1" stop-color="rgb(92.037964%, 65.731812%, 92.208862%)" offset="0.792969"/><stop stop-opacity="1" stop-color="rgb(92.189026%, 65.907288%, 92.170715%)" offset="0.796875"/><stop stop-opacity="1" stop-color="rgb(92.341614%, 66.081238%, 92.131042%)" offset="0.800781"/><stop stop-opacity="1" stop-color="rgb(92.492676%, 66.255188%, 92.092896%)" offset="0.804688"/><stop stop-opacity="1" stop-color="rgb(92.643738%, 66.430664%, 92.054749%)" offset="0.808594"/><stop stop-opacity="1" stop-color="rgb(92.796326%, 66.604614%, 92.016602%)" offset="0.8125"/><stop stop-opacity="1" stop-color="rgb(93.023682%, 66.867065%, 91.960144%)" offset="0.816406"/><stop stop-opacity="1" stop-color="rgb(93.325806%, 67.216492%, 91.88385%)" offset="0.824219"/><stop stop-opacity="1" stop-color="rgb(93.629456%, 67.564392%, 91.807556%)" offset="0.832031"/><stop stop-opacity="1" stop-color="rgb(93.933105%, 67.913818%, 91.729736%)" offset="0.839844"/><stop stop-opacity="1" stop-color="rgb(94.236755%, 68.263245%, 91.653442%)" offset="0.847656"/><stop stop-opacity="1" stop-color="rgb(94.538879%, 68.612671%, 91.577148%)" offset="0.855469"/><stop stop-opacity="1" stop-color="rgb(94.842529%, 68.962097%, 91.500854%)" offset="0.863281"/><stop stop-opacity="1" stop-color="rgb(95.146179%, 69.311523%, 91.424561%)" offset="0.871094"/><stop stop-opacity="1" stop-color="rgb(95.373535%, 69.573975%, 91.366577%)" offset="0.878906"/><stop stop-opacity="1" stop-color="rgb(95.526123%, 69.747925%, 91.32843%)" offset="0.882812"/><stop stop-opacity="1" stop-color="rgb(95.677185%, 69.921875%, 91.290283%)" offset="0.886719"/><stop stop-opacity="1" stop-color="rgb(95.828247%, 70.097351%, 91.25061%)" offset="0.890625"/><stop stop-opacity="1" stop-color="rgb(95.980835%, 70.271301%, 91.212463%)" offset="0.894531"/><stop stop-opacity="1" stop-color="rgb(96.131897%, 70.446777%, 91.174316%)" offset="0.898438"/><stop stop-opacity="1" stop-color="rgb(96.282959%, 70.620728%, 91.136169%)" offset="0.902344"/><stop stop-opacity="1" stop-color="rgb(96.435547%, 70.796204%, 91.098022%)" offset="0.90625"/><stop stop-opacity="1" stop-color="rgb(96.662903%, 71.057129%, 91.041565%)" offset="0.910156"/><stop stop-opacity="1" stop-color="rgb(96.966553%, 71.406555%, 90.965271%)" offset="0.917969"/><stop stop-opacity="1" stop-color="rgb(97.268677%, 71.755981%, 90.887451%)" offset="0.925781"/><stop stop-opacity="1" stop-color="rgb(97.572327%, 72.105408%, 90.811157%)" offset="0.933594"/><stop stop-opacity="1" stop-color="rgb(97.799683%, 72.366333%, 90.753174%)" offset="0.941406"/><stop stop-opacity="1" stop-color="rgb(97.952271%, 72.541809%, 90.715027%)" offset="0.945312"/><stop stop-opacity="1" stop-color="rgb(98.103333%, 72.715759%, 90.67688%)" offset="0.949219"/><stop stop-opacity="1" stop-color="rgb(98.254395%, 72.891235%, 90.638733%)" offset="0.953125"/><stop stop-opacity="1" stop-color="rgb(98.48175%, 73.152161%, 90.582275%)" offset="0.957031"/><stop stop-opacity="1" stop-color="rgb(98.7854%, 73.501587%, 90.505981%)" offset="0.964844"/><stop stop-opacity="1" stop-color="rgb(99.012756%, 73.764038%, 90.447998%)" offset="0.972656"/><stop stop-opacity="1" stop-color="rgb(99.165344%, 73.937988%, 90.409851%)" offset="0.976562"/><stop stop-opacity="1" stop-color="rgb(99.3927%, 74.200439%, 90.351868%)" offset="0.980469"/><stop stop-opacity="1" stop-color="rgb(99.620056%, 74.462891%, 90.293884%)" offset="0.988281"/><stop stop-opacity="1" stop-color="rgb(99.847412%, 74.723816%, 90.237427%)" offset="0.992188"/><stop stop-opacity="1" stop-color="rgb(100%, 74.899292%, 90.19928%)" offset="1"/></radialGradient><clipPath id="a1d2c95e8b"><rect x="0" width="1142" y="0" height="1143"/></clipPath><clipPath id="58a4585e89"><path d="M 615.679688 640.554688 L 722.492188 640.554688 L 722.492188 747.371094 L 615.679688 747.371094 Z M 615.679688 640.554688 " clip-rule="nonzero"/></clipPath><clipPath id="7c0ebde48c"><path d="M 675.894531 645.71875 L 678.800781 655.214844 C 683.054688 669.113281 693.933594 679.996094 707.835938 684.25 L 717.332031 687.15625 C 720.320312 688.074219 722.363281 690.835938 722.363281 693.960938 C 722.363281 697.089844 720.320312 699.851562 717.332031 700.769531 L 707.835938 703.675781 C 693.933594 707.929688 683.054688 718.8125 678.800781 732.710938 L 675.894531 742.207031 C 674.976562 745.199219 672.214844 747.238281 669.085938 747.238281 C 665.957031 747.238281 663.195312 745.199219 662.28125 742.207031 L 659.375 732.710938 C 655.121094 718.8125 644.238281 707.929688 630.335938 703.675781 L 620.84375 700.769531 C 617.851562 699.851562 615.808594 697.089844 615.808594 693.960938 C 615.808594 690.835938 617.851562 688.074219 620.84375 687.15625 L 630.335938 684.25 C 644.238281 679.996094 655.121094 669.113281 659.375 655.214844 L 662.28125 645.71875 C 663.195312 642.726562 665.957031 640.683594 669.085938 640.683594 C 672.214844 640.683594 674.976562 642.726562 675.894531 645.71875 Z M 675.894531 645.71875 " clip-rule="nonzero"/></clipPath><clipPath id="da2936e284"><path d="M 0.679688 0.558594 L 107.398438 0.558594 L 107.398438 107.359375 L 0.679688 107.359375 Z M 0.679688 0.558594 " clip-rule="nonzero"/></clipPath><clipPath id="3fc7920925"><path d="M 60.894531 5.71875 L 63.800781 15.214844 C 68.054688 29.113281 78.933594 39.996094 92.835938 44.25 L 102.332031 47.15625 C 105.320312 48.074219 107.363281 50.835938 107.363281 53.960938 C 107.363281 57.089844 105.320312 59.851562 102.332031 60.769531 L 92.835938 63.675781 C 78.933594 67.929688 68.054688 78.8125 63.800781 92.710938 L 60.894531 102.207031 C 59.976562 105.199219 57.214844 107.238281 54.085938 107.238281 C 50.957031 107.238281 48.195312 105.199219 47.28125 102.207031 L 44.375 92.710938 C 40.121094 78.8125 29.238281 67.929688 15.335938 63.675781 L 5.84375 60.769531 C 2.851562 59.851562 0.808594 57.089844 0.808594 53.960938 C 0.808594 50.835938 2.851562 48.074219 5.84375 47.15625 L 15.335938 44.25 C 29.238281 39.996094 40.121094 29.113281 44.375 15.214844 L 47.28125 5.71875 C 48.195312 2.726562 50.957031 0.683594 54.085938 0.683594 C 57.214844 0.683594 59.976562 2.726562 60.894531 5.71875 Z M 60.894531 5.71875 " clip-rule="nonzero"/></clipPath><clipPath id="3f05f3e302"><rect x="0" width="108" y="0" height="108"/></clipPath><clipPath id="e12954ff9c"><path d="M 777.507812 640.554688 L 884.320312 640.554688 L 884.320312 747.371094 L 777.507812 747.371094 Z M 777.507812 640.554688 " clip-rule="nonzero"/></clipPath><clipPath id="766dbe7599"><path d="M 837.71875 645.71875 L 840.625 655.214844 C 844.878906 669.113281 855.761719 679.996094 869.664062 684.25 L 879.15625 687.15625 C 882.148438 688.074219 884.191406 690.835938 884.191406 693.960938 C 884.191406 697.089844 882.148438 699.851562 879.15625 700.769531 L 869.664062 703.675781 C 855.761719 707.929688 844.878906 718.8125 840.625 732.710938 L 837.71875 742.207031 C 836.804688 745.199219 834.042969 747.238281 830.914062 747.238281 C 827.785156 747.238281 825.023438 745.199219 824.105469 742.207031 L 821.199219 732.710938 C 816.945312 718.8125 806.066406 707.929688 792.164062 703.675781 L 782.667969 700.769531 C 779.679688 699.851562 777.636719 697.089844 777.636719 693.960938 C 777.636719 690.835938 779.679688 688.074219 782.667969 687.15625 L 792.164062 684.25 C 806.066406 679.996094 816.945312 669.113281 821.199219 655.214844 L 824.105469 645.71875 C 825.023438 642.726562 827.785156 640.683594 830.914062 640.683594 C 834.042969 640.683594 836.804688 642.726562 837.71875 645.71875 Z M 837.71875 645.71875 " clip-rule="nonzero"/></clipPath><clipPath id="bab81ee2b2"><path d="M 0.601562 0.558594 L 107.320312 0.558594 L 107.320312 107.359375 L 0.601562 107.359375 Z M 0.601562 0.558594 " clip-rule="nonzero"/></clipPath><clipPath id="0419bafd63"><path d="M 60.71875 5.71875 L 63.625 15.214844 C 67.878906 29.113281 78.761719 39.996094 92.664062 44.25 L 102.15625 47.15625 C 105.148438 48.074219 107.191406 50.835938 107.191406 53.960938 C 107.191406 57.089844 105.148438 59.851562 102.15625 60.769531 L 92.664062 63.675781 C 78.761719 67.929688 67.878906 78.8125 63.625 92.710938 L 60.71875 102.207031 C 59.804688 105.199219 57.042969 107.238281 53.914062 107.238281 C 50.785156 107.238281 48.023438 105.199219 47.105469 102.207031 L 44.199219 92.710938 C 39.945312 78.8125 29.066406 67.929688 15.164062 63.675781 L 5.667969 60.769531 C 2.679688 59.851562 0.636719 57.089844 0.636719 53.960938 C 0.636719 50.835938 2.679688 48.074219 5.667969 47.15625 L 15.164062 44.25 C 29.066406 39.996094 39.945312 29.113281 44.199219 15.214844 L 47.105469 5.71875 C 48.023438 2.726562 50.785156 0.683594 53.914062 0.683594 C 57.042969 0.683594 59.804688 2.726562 60.71875 5.71875 Z M 60.71875 5.71875 " clip-rule="nonzero"/></clipPath><clipPath id="7a3b2a70a7"><rect x="0" width="108" y="0" height="108"/></clipPath></defs><g clip-path="url(#3afca7d741)"><g clip-path="url(#f688b76d54)"><g transform="matrix(1, 0, 0, 1, 179, 170)"><g clip-path="url(#a1d2c95e8b)"><g clip-path="url(#22f97f2c63)"><g clip-path="url(#0f098b3e77)"><path fill="url(#b07841d4ab)" d="M 0.0664062 0.539062 L 0.0664062 1142.40625 L 1141.933594 1142.40625 L 1141.933594 0.539062 Z M 0.0664062 0.539062 " fill-rule="nonzero"/></g></g></g></g></g></g><g clip-path="url(#58a4585e89)"><g clip-path="url(#7c0ebde48c)"><g transform="matrix(1, 0, 0, 1, 615, 640)"><g clip-path="url(#3f05f3e302)"><g clip-path="url(#da2936e284)"><g clip-path="url(#3fc7920925)"><rect x="-945" width="2160" fill="#e8beff" height="2159.999904" y="-969.999985" fill-opacity="1"/></g></g></g></g></g></g><g clip-path="url(#e12954ff9c)"><g clip-path="url(#766dbe7599)"><g transform="matrix(1, 0, 0, 1, 777, 640)"><g clip-path="url(#7a3b2a70a7)"><g clip-path="url(#bab81ee2b2)"><g clip-path="url(#0419bafd63)"><rect x="-1107" width="2160" fill="#e8beff" height="2159.999904" y="-969.999985" fill-opacity="1"/></g></g></g></g></g></g><path stroke-linecap="round" transform="matrix(0.737727, -0.135123, 0.135123, 0.737727, 660.688752, 819.859133)" fill="none" stroke-linejoin="miter" d="M 19.361857 18.90739 C 83.070687 78.114659 146.77962 78.087034 210.487717 18.829639 " stroke="#e8beff" stroke-width="27" stroke-opacity="1" stroke-miterlimit="4"/></svg>