<svg xmlns="http://www.w3.org/2000/svg" xmlns:xlink="http://www.w3.org/1999/xlink" width="2000" zoomAndPan="magnify" viewBox="0 0 1500 1499.999933" height="2000" preserveAspectRatio="xMidYMid meet" version="1.0"><defs><clipPath id="785535f969"><path d="M 196.207031 243.484375 L 1302.457031 243.484375 L 1302.457031 1349.734375 L 196.207031 1349.734375 Z M 196.207031 243.484375 " clip-rule="nonzero"/></clipPath><clipPath id="b5ca4a7381"><path d="M 944.675781 212.714844 L 1194.425781 212.714844 L 1194.425781 587.714844 L 944.675781 587.714844 Z M 944.675781 212.714844 " clip-rule="nonzero"/></clipPath><clipPath id="7628170065"><path d="M 297.632812 1021.792969 L 451.382812 1021.792969 L 451.382812 1212.292969 L 297.632812 1212.292969 Z M 297.632812 1021.792969 " clip-rule="nonzero"/></clipPath></defs><rect x="-150" width="1800" fill="#ffffff" y="-149.999993" height="1799.99992" fill-opacity="1"/><rect x="-150" width="1800" fill="#ffffff" y="-149.999993" height="1799.99992" fill-opacity="1"/><g clip-path="url(#785535f969)"><path fill="#a489ff" d="M 749.460938 243.484375 C 724.796875 751.785156 704.511719 772.070312 196.207031 796.738281 C 704.511719 821.402344 724.796875 841.6875 749.460938 1349.992188 C 774.128906 841.6875 794.414062 821.402344 1302.714844 796.738281 C 794.414062 772.070312 774.128906 751.785156 749.460938 243.484375 Z M 749.460938 243.484375 " fill-opacity="1" fill-rule="nonzero"/></g><g clip-path="url(#b5ca4a7381)"><path fill="#a489ff" d="M 1194.648438 400.308594 L 1098.546875 388.367188 L 1158.035156 311.9375 L 1081.761719 371.269531 L 1071.222656 212.871094 L 1068.101562 212.871094 L 1057.5625 371.269531 L 981.289062 311.9375 L 1040.777344 388.367188 L 944.675781 400.308594 L 1040.777344 412.253906 L 981.289062 488.683594 L 1057.5625 429.351562 L 1068.101562 587.75 L 1071.222656 587.75 L 1081.761719 429.351562 L 1158.035156 488.683594 L 1098.546875 412.253906 Z M 1194.648438 400.308594 " fill-opacity="1" fill-rule="nonzero"/></g><g clip-path="url(#7628170065)"><path fill="#a489ff" d="M 446.0625 1110.054688 L 402.324219 1098.597656 C 397.875 1097.417969 394.414062 1093.757812 393.546875 1089.230469 L 381.65625 1027.617188 C 380.871094 1023.5625 377.523438 1021.792969 374.570312 1021.792969 C 371.617188 1021.792969 368.269531 1023.601562 367.484375 1027.617188 L 355.59375 1089.191406 C 354.730469 1093.71875 351.265625 1097.417969 346.816406 1098.558594 L 303.078125 1110.054688 C 299.808594 1110.921875 297.683594 1113.636719 297.683594 1117.023438 C 297.683594 1120.410156 299.808594 1123.125 303.078125 1123.992188 L 346.816406 1135.449219 C 351.265625 1136.628906 354.730469 1140.289062 355.59375 1144.816406 L 367.484375 1206.429688 C 368.269531 1210.484375 371.617188 1212.257812 374.570312 1212.257812 C 377.523438 1212.257812 380.871094 1210.445312 381.65625 1206.429688 L 393.546875 1144.855469 C 394.414062 1140.328125 397.875 1136.628906 402.324219 1135.488281 L 446.0625 1124.03125 C 449.332031 1123.164062 451.457031 1120.449219 451.457031 1117.0625 C 451.457031 1113.675781 449.332031 1110.921875 446.0625 1110.054688 Z M 446.0625 1110.054688 " fill-opacity="1" fill-rule="nonzero"/></g></svg>